<svg version="1.2" xmlns="http://www.w3.org/2000/svg" viewBox="0 0 512 512" width="512" height="512">
	<title>file</title>
	<style>
		.s0 { fill: #000000 } 
	</style>
	<path id="Path 0" fill-rule="evenodd" class="s0" d="m232 119.08c5.33-0.08 9.53 0.54 14.53 2.15 3.87 1.25 9.66 3.85 12.87 5.77 3.21 1.93 8.52 6.43 11.82 10 4.16 4.52 7.45 9.54 10.8 16.5 2.65 5.5 5.64 13.21 8.48 24.28l3.66-3.14c2.01-1.73 6.28-4.71 9.5-6.63 3.21-1.92 8.77-4.56 12.34-5.87 4.43-1.61 9.53-2.53 16-2.87 7.35-0.39 10.97-0.09 16 1.33 3.57 1.01 8.98 3.45 12 5.43 3.02 1.98 7.89 6.27 10.82 9.53 3.18 3.55 7.31 9.96 10.27 15.94 2.77 5.58 5.61 13.1 6.42 17 0.8 3.85 1.47 8.8 1.48 11 0.02 2.2-0.43 6.47-1 9.5-0.57 3.03-2.3 8.2-3.84 11.5-1.54 3.3-5.47 8.88-8.73 12.39-3.25 3.52-8.62 8.21-11.92 10.44-3.3 2.23-8.7 5.27-12 6.76-3.3 1.48-9.26 3.65-13.25 4.81-3.99 1.15-7.25 2.33-7.25 2.6 0 0.27 3.49 2.41 7.75 4.74 4.26 2.33 11.13 6.66 15.25 9.62 4.13 2.96 9.75 7.44 12.5 9.97 2.75 2.53 7.65 7.53 10.89 11.13 3.24 3.6 8.4 10.36 11.46 15.04 3.05 4.68 7.33 12.32 9.5 17 2.17 4.68 4.17 10.07 4.46 12 0.42 2.83 0.02 4.03-2.1 6.25-1.52 1.59-3.69 2.75-5.16 2.75-1.4 0-3.45-0.45-4.55-1-1.15-0.58-4.51-6.2-7.9-13.25-3.24-6.74-8.58-15.85-11.86-20.25-3.28-4.4-9.33-11.15-13.43-15-4.11-3.85-10.81-9.31-14.89-12.13-4.08-2.83-11.02-6.96-15.42-9.18-4.4-2.22-8.14-3.96-8.31-3.86-0.17 0.09 0.79 3.55 2.13 7.67 1.34 4.13 3.03 10.2 3.75 13.5 0.72 3.3 1.3 11.4 1.29 18-0.01 9.33-0.52 13.78-2.26 20-1.23 4.4-3.67 10.67-5.42 13.93-1.75 3.27-5.2 8.18-7.68 10.93-2.48 2.75-7.2 6.74-10.5 8.87-3.3 2.13-9.6 4.97-14 6.31-5.52 1.69-10.4 2.45-15.75 2.45-4.7 0.01-10.8-0.8-15.5-2.06-4.26-1.14-9.94-3.28-12.63-4.75-2.68-1.48-7.1-4.93-9.83-7.68-2.75-2.77-6.5-8.12-8.41-12-2.06-4.18-4.07-10.43-4.99-15.5-1.07-5.91-1.34-11.24-0.9-17.5 0.34-4.95 1.08-11.25 1.63-14 0.55-2.75 0.86-5.11 0.69-5.25-0.17-0.14-4.59 1.75-9.81 4.2-5.22 2.44-13.78 5.6-19 7.01-5.22 1.4-14.22 2.98-20 3.51-6.79 0.62-12.8 0.61-17-0.03-3.7-0.56-9.73-2.55-14-4.61-5.46-2.65-9.4-5.56-14.5-10.73-3.85-3.91-8.44-9.8-10.2-13.1-1.77-3.3-4.13-9.6-5.26-14-1.14-4.4-2.05-10.93-2.04-14.5 0.02-3.57 0.73-9.43 1.58-13 0.85-3.57 3.41-10.1 5.7-14.5 3.11-5.99 6.43-10.28 13.19-17.07 4.97-4.99 12.18-11.16 16.03-13.7 3.85-2.54 10.6-6.18 15-8.09 4.4-1.92 10.93-4.06 14.5-4.76 3.57-0.7 6.61-1.29 6.75-1.32 0.13-0.03-0.72-4.11-1.89-9.06-1.49-6.27-2.13-12.18-2.12-19.5 0.02-7.49 0.57-12.22 1.92-16.5 1.05-3.3 3.46-8.44 5.37-11.41 1.91-2.98 5.53-7.26 8.05-9.5 2.51-2.25 7.24-5.41 10.5-7.02 3.25-1.61 9.29-3.93 13.42-5.15 4.48-1.32 10.52-2.26 15-2.34zm-23 23.07c-2.47 1.41-6.07 4.37-8 6.56-1.93 2.2-4.3 6.42-5.27 9.39-1.1 3.36-1.77 8.42-1.76 13.4 0 4.78 0.84 11.22 2.06 16 1.13 4.4 2.6 9.05 3.26 10.33 0.82 1.56 3.33 3.05 7.71 4.56 3.57 1.23 9.2 3.96 12.5 6.06 3.3 2.11 8.7 6.6 12 9.99 3.3 3.39 6.79 7.83 7.75 9.86 1.18 2.49 1.5 4.57 1 6.36-0.41 1.47-1.88 3.51-3.25 4.54-1.38 1.03-3.51 1.85-4.75 1.83q-2.25-0.03-10.62-8.78c-4.61-4.81-10.57-9.97-13.25-11.47-2.69-1.49-8.26-3.43-12.38-4.3-6.02-1.27-8.83-1.38-14.25-0.53-3.71 0.58-9.34 2.13-12.5 3.45-3.16 1.32-7.55 3.43-9.75 4.69-2.2 1.26-7.33 4.8-11.4 7.85-4.07 3.06-9.18 7.81-11.36 10.56-2.17 2.75-5.21 7.47-6.76 10.5-1.54 3.02-3.37 8.43-4.06 12-1.02 5.23-1.02 7.86 0 13.5 0.69 3.85 2.64 9.7 4.33 13 1.7 3.3 5.25 8.14 7.91 10.75 2.66 2.61 7.43 5.97 10.59 7.47 4.06 1.92 7.81 2.83 12.75 3.09 3.85 0.21 11.16-0.34 16.25-1.21 5.09-0.88 12.06-2.56 15.5-3.74 3.44-1.18 8.95-3.49 12.25-5.14 3.3-1.64 8.47-4.67 11.5-6.73 3.03-2.05 7.75-5.93 10.5-8.61 2.75-2.68 6.69-6.79 8.75-9.13 3.07-3.48 4.39-4.25 7.25-4.25 2.17 0 4.26 0.76 5.5 2 1.1 1.1 2.28 3.01 2.62 4.25 0.44 1.58-0.72 4.77-3.93 10.75-2.5 4.68-6.13 13.23-8.06 19-2 6-3.93 14.36-4.51 19.5-0.63 5.69-0.66 11.39-0.08 15.5 0.51 3.57 1.58 8.52 2.39 11 0.81 2.48 3.44 6.75 5.85 9.5 2.72 3.1 6.44 5.95 9.8 7.49 4.78 2.2 6.79 2.5 16.92 2.5 10.25 0.01 12.1-0.27 17-2.55 3.02-1.41 7.3-4.16 9.5-6.11 2.2-1.96 5.43-6.2 7.19-9.44 1.75-3.24 3.89-8.59 4.75-11.89 0.9-3.44 1.56-10.05 1.56-15.5-0.01-6.1-0.75-12.54-2.06-18-1.13-4.68-3.86-12.32-6.07-17-2.2-4.68-6-11.31-8.44-14.75-3-4.23-4.44-7.3-4.46-9.5-0.02-2.06 0.75-3.98 2.1-5.25 1.88-1.76 3.65-2.02 14.79-2.16 10.01-0.13 14.72-0.7 22.64-2.76 5.5-1.43 13.82-4.51 18.5-6.84 5.48-2.73 10.49-6.19 14.1-9.73 3.08-3.03 6.65-7.54 7.92-10.01 1.68-3.25 2.45-6.73 2.76-12.5 0.34-6.4-0.01-9.3-1.76-14.5-1.2-3.57-3.46-8.75-5.02-11.5-1.56-2.75-4.61-7.03-6.77-9.5-2.17-2.47-6.37-5.81-9.34-7.41-3.64-1.97-7.34-3.07-11.39-3.38-3.96-0.31-8.04 0.12-12 1.25-3.3 0.94-8.66 3.14-11.9 4.88-3.25 1.74-8.81 5.86-12.36 9.16-4.56 4.24-7.3 7.83-9.35 12.25-1.94 4.2-3.71 6.58-5.39 7.25-1.38 0.55-3.51 0.78-4.75 0.5-1.24-0.27-3.15-1.44-4.25-2.6-1.71-1.8-2.1-4.03-2.66-15.25-0.46-9.21-1.31-15.25-2.85-20.15-1.2-3.85-3.83-10.13-5.84-13.96-2.01-3.82-5.79-9.11-8.4-11.75-2.61-2.63-7.56-6.14-11-7.79-5.39-2.58-7.35-2.99-14.25-2.95-4.67 0.04-10.29 0.78-13.5 1.79-3.03 0.96-7.53 2.9-10 4.31z"/>
</svg>