<svg version="1.2" xmlns="http://www.w3.org/2000/svg" viewBox="0 0 512 512" width="512" height="512">
	<title>file</title>
	<style>
		.s0 { fill: #000000 } 
	</style>
	<path id="Path 0" fill-rule="evenodd" class="s0" d="m335.25 90.05c4.09-0.03 9.22 0.73 13 1.93 3.44 1.08 9.06 3.78 12.5 6 4.19 2.69 7.9 6.25 11.24 10.77 2.74 3.71 6.14 9.68 10.12 19.75l8.7-0.34c4.78-0.19 11.17 0.2 14.19 0.87 3.02 0.67 8.2 2.58 11.5 4.25 3.3 1.67 8.28 5.33 11.06 8.13 2.9 2.91 6.53 8.08 8.49 12.09 2.96 6.06 3.47 8.21 3.79 16 0.3 7.28-0.04 10.14-1.76 15-1.16 3.3-3.57 8.44-5.35 11.42-1.78 2.99-6.6 8.85-10.73 13.03-4.12 4.18-10.43 9.65-14 12.16-3.57 2.51-9.87 6.51-14 8.89-6.2 3.57-7.15 4.44-5.5 5.01 1.1 0.38 5.15 0.98 9 1.32 3.85 0.34 11.5 1.75 17 3.13 5.5 1.38 13.6 4.27 18 6.42 4.46 2.18 10.6 6.27 13.88 9.26 3.23 2.95 6.93 7.16 8.22 9.36 1.29 2.2 3.26 6.48 4.38 9.5 1.21 3.28 2.02 7.92 2.01 11.5 0 3.3-0.91 8.93-2.01 12.5-1.11 3.57-3.08 8.3-4.38 10.5-1.31 2.2-4.11 5.81-6.24 8.01-2.12 2.21-6.11 5.57-8.86 7.47-2.75 1.9-7.48 4.46-16 7.91l-0.63 12.31c-0.38 7.57-1.27 14.03-2.3 16.8-0.92 2.48-3.11 6.71-4.87 9.41-1.76 2.71-5.45 6.91-8.2 9.33-2.75 2.43-7.25 5.46-10 6.73-2.75 1.27-7.7 2.86-11 3.53-3.47 0.7-8.11 0.93-11 0.54-2.75-0.38-7.25-1.47-10-2.44-2.75-0.96-7.7-3.48-11-5.59-3.3-2.11-8.41-6.12-11.36-8.92-2.95-2.8-8.08-8.69-11.39-13.09-3.31-4.4-7.31-10.36-8.89-13.25-1.57-2.89-3.31-5.02-3.86-4.75-0.55 0.27-1 2.98-1 6 0 3.02-0.49 8.99-1.1 13.25-0.6 4.26-1.97 11.13-3.04 15.25-1.07 4.13-3.66 11.1-5.75 15.5-2.08 4.4-5.66 10.36-7.95 13.25-2.29 2.89-6.52 6.81-9.41 8.72-2.89 1.91-7.95 4.39-11.25 5.52-3.67 1.25-8.53 2.03-12.5 2.02-4.32-0.01-8.85-0.85-13.5-2.49-3.85-1.36-9.45-4.17-12.44-6.25-2.99-2.07-7.59-6.7-10.23-10.27-2.63-3.57-5.88-9.2-9.61-18.5l-11.86-0.59c-6.52-0.32-13.66-1.23-15.86-2.03-2.2-0.79-6.25-2.75-9-4.36-2.75-1.61-6.97-4.97-9.38-7.47-2.41-2.5-5.9-7.59-7.75-11.3-1.85-3.71-3.75-9.11-4.21-12-0.46-2.89-0.46-8.18 0-11.75 0.51-3.99 2.16-9.2 4.27-13.5 1.89-3.85 5.04-8.91 7-11.25 2.81-3.34 3.2-4.25 1.82-4.23-0.96 0.01-6.93 0.93-13.25 2.03-7.82 1.37-18.38 2.21-33 2.61-14.47 0.41-24.93 0.2-32-0.64-5.78-0.68-15.45-2.49-21.5-4.01-6.05-1.53-13.7-3.87-17-5.2-3.8-1.54-6.47-3.33-7.27-4.87-0.92-1.76-1.19-7.26-1-19.78 0.27-17.15 0.3-17.36 2.77-19.36 1.9-1.53 3.46-1.89 6.5-1.51 2.2 0.28 10.3 1.69 18 3.14 7.7 1.45 20.75 3.5 29 4.55 8.25 1.05 22.43 2.42 31.5 3.04 9.07 0.62 20.1 0.98 32.5 0.48l-5.5-3.1c-3.03-1.7-7.86-5.42-10.75-8.25-3.18-3.12-6.53-7.81-8.5-11.9-3.06-6.36-3.25-7.39-3.25-17.75 0-10.6 0.13-11.27 3.63-18.5 2-4.12 5.6-9.5 8-11.95 2.4-2.45 7.07-6.17 10.37-8.28 3.3-2.1 8.14-4.49 15.5-6.77l-0.64-6.75c-0.36-3.88-0.12-9.73 0.58-13.75 0.66-3.85 2.6-9.93 4.31-13.5 1.75-3.68 5.31-8.71 8.18-11.59 2.79-2.8 7.77-6.46 11.07-8.13 3.3-1.68 8.7-3.6 12-4.28 3.33-0.68 8.34-0.96 11.25-0.62 2.89 0.34 7.61 1.5 10.5 2.58 2.89 1.08 8.18 3.85 11.75 6.17 3.57 2.31 9.43 7.21 13 10.88 3.57 3.67 9.01 10.46 12.08 15.08 3.07 4.63 6.51 9.98 9.69 15.41l0.65-10c0.36-5.5 1.56-14.5 2.68-20 1.12-5.5 3.4-13.37 5.07-17.5 1.66-4.12 4.47-9.75 6.24-12.5 1.76-2.75 4.87-6.69 6.9-8.75 2.03-2.06 5.38-4.81 7.44-6.09 2.06-1.29 6.23-3.3 9.25-4.45 3.54-1.35 7.91-2.12 12.25-2.16zm-14.3 20.57c-1.9 1.17-5.39 5-7.75 8.5-2.37 3.51-5.23 8.85-6.36 11.88-1.13 3.03-2.98 9.78-4.11 15-1.69 7.8-2.06 13.09-2.06 29.5-0.01 13.58 0.54 23.85 1.7 32 0.94 6.6 2.82 16.61 4.17 22.25 1.35 5.64 2.46 11.15 2.46 12.25 0 1.46 0.47 1.84 1.75 1.42 0.96-0.31 6.7-1.67 12.75-3.02 6.05-1.34 17.07-4.49 24.5-7 7.43-2.51 19.35-7.36 26.5-10.79 7.15-3.42 16.6-8.63 21-11.58 4.4-2.95 11.15-8.54 15-12.44 3.85-3.9 8.44-9.79 10.21-13.09 1.76-3.3 3.51-8.03 3.87-10.5 0.43-2.93 0.12-6.41-0.89-10-1.03-3.63-3.03-7.16-5.88-10.39-2.37-2.69-6.56-6.05-9.31-7.47-4.33-2.24-6.26-2.59-14.5-2.61-5.23-0.01-12.06 0.43-15.2 0.97-5.39 0.95-5.83 0.87-8.21-1.5-1.66-1.65-2.69-4.02-3.05-7-0.29-2.47-2.03-7.65-3.87-11.5-2.35-4.93-4.94-8.43-8.76-11.82-3.52-3.14-7.15-5.32-10.41-6.26-2.75-0.79-7.02-1.4-9.5-1.35-2.48 0.04-5.87 0.61-7.55 1.26-1.67 0.64-4.6 2.13-6.5 3.29zm-113.47 33c-2.19 1.72-5.19 5.32-6.66 8-1.48 2.68-3.15 7.81-3.73 11.38-0.7 4.4-0.71 8.76-0.04 13.5 0.55 3.85 1.21 7.79 1.47 8.75 0.27 0.96-0.2 3.1-1.02 4.75-0.82 1.65-2.51 3.2-3.75 3.44-1.24 0.25-3.82 0.68-5.75 0.98-1.93 0.29-6.65 2.07-10.5 3.96-4.14 2.04-8.61 5.21-10.94 7.78-2.17 2.39-4.75 6.25-5.75 8.59-1.12 2.64-1.83 6.81-1.86 11-0.03 5.2 0.52 7.9 2.4 11.75 1.57 3.22 4.18 6.29 7.3 8.63 2.67 1.99 7.21 4.8 10.1 6.25 2.89 1.44 8.29 3.47 12 4.5 3.71 1.04 11.25 2.45 16.75 3.15 6.68 0.84 16.15 1.06 28.5 0.67 10.18-0.32 22.55-1.24 27.5-2.03 4.95-0.8 10.8-1.95 13-2.55 2.2-0.6 6.54-1.21 9.64-1.36 4.51-0.21 6.08 0.14 7.79 1.74 1.2 1.13 2.12 3.2 2.1 4.75-0.03 2.67 0.09 2.73 3.92 2 3.44-0.65 4.29-0.42 6.48 1.75 1.39 1.37 2.72 3.4 2.94 4.5 0.23 1.1 1.99 7.62 3.92 14.5 1.93 6.87 5.62 17.9 8.22 24.5 2.59 6.6 6.67 15.82 9.06 20.5 2.4 4.68 6.47 11.65 9.05 15.5 2.57 3.85 6.53 9.19 8.78 11.86 2.26 2.67 6.8 6.89 10.1 9.39 3.3 2.5 8.02 5.43 10.5 6.52 2.95 1.3 6.56 1.96 10.5 1.91 4.25-0.05 7.46-0.79 11-2.54 2.75-1.36 6.6-4.2 8.56-6.31 1.96-2.1 4.55-6.42 5.75-9.58 1.48-3.88 2.19-7.95 2.18-12.5-0.01-3.71-0.57-9.55-1.25-12.97-1.15-5.75-1.09-6.42 0.76-8.89 1.5-2.02 3.49-2.99 8-3.91 3.3-0.67 8.65-2.51 11.9-4.1 3.24-1.58 7.68-4.68 9.86-6.88 2.19-2.2 4.89-5.8 6.01-8 1.15-2.27 2.24-6.82 2.5-10.5 0.4-5.34 0.06-7.47-1.89-11.92-1.46-3.33-4.12-6.94-6.88-9.36-2.48-2.16-7.2-5.29-10.5-6.96-3.3-1.66-10.27-4.14-15.5-5.51-8.02-2.09-12.54-2.56-29-2.99-11.68-0.31-23.71-0.06-30 0.63-5.77 0.64-16.57 2.36-24 3.84-12.9 2.56-13.62 2.6-16.25 0.97-1.51-0.93-3.02-2.94-3.34-4.45-0.54-2.47-0.97-2.72-4.25-2.42-2.65 0.25-4.28-0.24-5.91-1.75-1.24-1.14-2.89-4.44-3.67-7.33-0.78-2.89-2.42-9.07-3.64-13.75-1.22-4.68-4.23-13.9-6.69-20.5-2.46-6.6-6.94-16.95-9.96-23-3.03-6.05-7.81-14.33-10.64-18.4-2.83-4.07-7.4-9.73-10.15-12.57-2.75-2.85-7.47-6.84-10.5-8.86-3.03-2.02-7.75-4.35-10.5-5.19-2.75-0.83-6.13-1.49-7.5-1.46-1.38 0.02-4.76 0.82-7.52 1.76-2.77 0.95-6.82 3.12-9 4.84zm74.02 127.74c-4.4 0.84-12.61 2.91-18.25 4.59-5.64 1.68-14.75 4.85-20.25 7.05-5.5 2.2-14.16 6.09-19.25 8.64-5.09 2.55-12.62 6.89-16.75 9.66-4.12 2.76-10.87 8.43-15 12.61-4.58 4.64-8.67 9.93-10.5 13.59-2.49 4.98-2.99 7.19-2.97 13 0.02 5.25 0.59 8.06 2.25 11.25 1.22 2.34 3.91 5.91 5.97 7.94 2.06 2.02 5.78 4.6 8.25 5.73 3.59 1.63 6.52 2.04 14.5 2.02 5.5-0.02 12.47-0.39 15.5-0.84 5.04-0.74 5.67-0.61 7.59 1.55 1.15 1.29 2.67 5.05 3.37 8.35 0.7 3.3 2.52 8.48 4.05 11.5 1.52 3.02 5.06 7.64 7.87 10.25 3.73 3.46 6.68 5.19 10.87 6.38 3.8 1.07 7.45 1.41 10.75 1.01 2.75-0.34 7.02-1.65 9.5-2.92 2.81-1.44 6.21-4.55 9.06-8.27 2.5-3.27 5.58-8.65 6.83-11.95 1.24-3.3 2.91-8.48 3.69-11.5 0.79-3.02 1.93-9.32 2.55-14 0.67-5.09 0.92-15.72 0.61-26.5-0.28-9.9-1.31-23.18-2.27-29.5-0.97-6.32-3.01-16.29-4.54-22.15-2.13-8.17-3.09-10.47-4.1-9.84-0.73 0.45-4.93 1.51-9.33 2.35zm-214.65 8.26c0.14 7.06 0.27 7.43 2.9 8.47 1.51 0.6 7.48 2.17 13.25 3.49 5.78 1.33 16.58 2.89 24 3.49 9.86 0.79 17.67 0.78 29-0.05 8.53-0.63 20.68-2.04 27-3.13 6.32-1.1 16.9-3.37 23.5-5.06 6.6-1.68 13.07-3.35 14.37-3.7 1.31-0.35 2.55-0.97 2.75-1.38 0.21-0.41-3.33-0.41-7.87 0-4.54 0.41-19.5 0.73-33.25 0.71-13.75-0.02-30.4-0.61-37-1.31-6.6-0.71-19.65-2.41-29-3.78-9.35-1.38-19.88-3.1-23.4-3.82l-6.4-1.31z"/>
</svg>