<svg version="1.2" xmlns="http://www.w3.org/2000/svg" viewBox="0 0 512 512" width="512" height="512">
	<title>file</title>
	<style>
		.s0 { fill: #000000 } 
	</style>
	<path id="Path 0" fill-rule="evenodd" class="s0" d="m239.75 76.5c2.34 0.28 6.95 1.4 10.25 2.5 5.94 1.98 6.06 1.98 11.75 0.08 3.16-1.05 7.32-2.22 9.25-2.59 2.24-0.43 5.83-0.03 10 1.13 5.04 1.4 7.56 2.83 11.21 6.34 2.75 2.65 5.04 5.9 5.5 7.81 0.68 2.8 1.23 3.28 3.79 3.27 1.65 0 4.8 0.54 7 1.22 2.2 0.67 5.85 3.03 8.11 5.23 2.65 2.58 4.91 6.16 6.34 10.01 1.47 3.96 2.25 8.39 2.3 13 0.07 6.27 0.4 7.42 3.21 11 1.73 2.2 4.13 6.59 5.34 9.75 1.3 3.41 2.2 7.99 2.2 11.25 0 3.03-0.71 7.19-1.57 9.25-0.87 2.06-3.35 5.32-5.51 7.25-3.58 3.18-3.85 3.75-2.93 6.25 0.56 1.51 1 4.21 0.99 6-0.01 1.79-0.57 5-1.25 7.14-0.67 2.15-2.62 5.52-4.31 7.5-1.7 1.99-5.3 5.05-8 6.81-2.71 1.76-7.27 3.79-10.15 4.5-3.69 0.92-5.52 1.96-6.25 3.55-0.56 1.24-2.71 4.09-4.77 6.34-2.06 2.25-5.99 5.51-8.73 7.25-4.55 2.89-5.68 3.16-21.52 3.16l0.47 6c0.26 3.3 0.73 10.5 1.04 16 0.32 5.5 1.24 12.93 3.53 23l16.23 1.3c8.93 0.71 22.53 2.37 30.23 3.7 7.7 1.32 17.26 3.22 28.47 6l1.63-5.5c0.89-3.02 2.73-7.98 4.09-11 1.35-3.02 5.01-9.32 8.12-14 3.11-4.68 5.67-8.8 5.67-9.18 0.01-0.37-1.78-1.96-3.98-3.54-2.2-1.57-5.01-4.87-6.24-7.32-1.64-3.28-2.24-6.24-2.25-11.21 0-3.71 0.7-8.89 1.56-11.5 1.42-4.31 1.42-5.09 0-8.5-0.88-2.1-1.57-6.61-1.57-10.25 0-3.6 0.69-8.17 1.55-10.25 0.86-2.06 2.77-5.03 4.25-6.59 1.49-1.56 4.05-3.53 5.7-4.38 1.65-0.84 5.02-1.58 7.5-1.63 2.48-0.05 5.74 0.23 10 1.35l-0.63-6.25c-0.52-5.11-0.27-6.98 1.37-10.25 1.1-2.2 3.52-5.38 5.38-7.06 2.09-1.88 5.48-3.56 8.88-4.37 3.46-0.83 7.36-1.06 10.5-0.61 2.75 0.39 6.35 1.38 8 2.2 2.66 1.33 3.4 1.33 6.5 0.01 1.93-0.83 5.75-1.81 8.5-2.2 3.41-0.48 6.75-0.22 10.5 0.84 4.2 1.18 6.5 2.62 9.75 6.12 2.79 3 4.47 5.85 4.89 8.32 0.35 2.06 0.4 6-0.39 13.75l3.62-0.72c2-0.4 5.2-0.46 7.13-0.12 1.93 0.33 4.4 1.05 5.5 1.59 1.1 0.54 3.71 2.62 5.79 4.62 2.47 2.37 4.3 5.37 5.26 8.63 0.81 2.75 1.47 6.24 1.46 7.75-0.01 1.51-0.89 5.56-1.96 9-1.94 6.23-1.94 6.26 0.1 12.25 1.5 4.39 1.9 7.34 1.47 11-0.33 2.75-1.64 7.03-2.92 9.5-1.32 2.55-4.17 5.8-6.6 7.5-3.86 2.71-5.02 3-19.6 2.95l0.29 6.53c0.24 5.32-0.13 7.25-2 10.47-1.26 2.17-4.24 5.32-6.63 7-4.07 2.86-4.9 3.05-13.5 3.05-6.64 0-9.98-0.45-12.16-1.65-2.73-1.51-3.27-1.51-6-0.11-1.65 0.85-5.7 1.78-9 2.06-3.61 0.31-7.99-0.03-11-0.86-3.3-0.91-6.28-2.66-8.75-5.16-2.36-2.38-4.23-5.54-6.36-13.28l-3.57 5c-1.96 2.75-4.96 7.48-6.66 10.5-1.69 3.02-4.01 8.2-5.14 11.5-1.13 3.3-2.06 6.68-2.07 7.5-0.01 0.93 2.38 2.41 6.27 3.88 3.45 1.31 10.33 4.26 15.28 6.55 4.95 2.3 13.27 6.69 18.5 9.76 5.23 3.07 13.21 8.33 17.75 11.69 4.54 3.37 12.13 9.83 16.88 14.37 4.74 4.54 10.59 10.84 13 14 2.4 3.16 4.64 6.99 4.98 8.5 0.45 2.03-0.01 3.5-1.75 5.6-2.26 2.72-3.21 2.97-21.86 5.7-10.73 1.58-20.29 2.88-21.25 2.91-1.07 0.02-1.75 0.82-1.75 2.04 0 1.1 2.08 12.46 4.63 25.25 2.54 12.79 4.68 24.45 4.75 25.92 0.07 1.61-0.87 3.7-2.38 5.28-1.53 1.59-3.57 2.59-5.25 2.58-2.14-0.02-4.93-2.22-12.5-9.85-5.36-5.41-13.12-12.04-17.25-14.73-4.12-2.7-11.77-7.03-17-9.62-5.23-2.59-14.9-6.52-21.5-8.73-6.6-2.22-17.18-5.15-23.5-6.51-6.32-1.37-16.68-3.17-23-3.99-6.32-0.82-17.57-1.79-25-2.16-7.96-0.4-19.66-0.19-28.5 0.51-8.25 0.65-20.18 2.06-26.5 3.14-6.32 1.08-16 3.1-21.5 4.5-5.5 1.4-14.28 4.14-19.5 6.09-5.22 1.95-13.55 5.55-18.5 8-4.95 2.46-12.15 6.54-16 9.07-3.85 2.53-11.39 9.02-16.75 14.43-7.57 7.63-10.36 9.83-12.5 9.85-1.68 0.01-3.72-0.99-5.25-2.58-1.51-1.58-2.45-3.67-2.38-5.28 0.07-1.47 2.21-13.13 4.75-25.92 2.55-12.79 4.63-24.15 4.63-25.25 0-1.76-1.03-2.13-8.75-3.09-4.81-0.61-14.37-1.91-21.25-2.9-11.5-1.65-12.69-2.02-14.86-4.65-1.74-2.11-2.2-3.58-1.75-5.61 0.34-1.51 2.57-5.34 4.97-8.5 2.4-3.16 8.37-9.57 13.27-14.25 4.9-4.68 12.73-11.25 17.39-14.6 4.66-3.36 12.53-8.52 17.48-11.48 4.95-2.96 14.18-7.68 20.5-10.5 6.32-2.81 13.19-5.64 15.25-6.27 2.45-0.75 3.76-1.75 3.77-2.9 0-0.96-0.91-4.45-2.04-7.75-1.13-3.3-3.45-8.48-5.14-11.5-1.7-3.02-4.7-7.75-10.23-15.5l-1.31 4.75c-0.82 2.99-2.69 6.15-5.05 8.53-2.47 2.5-5.45 4.25-8.75 5.16-3 0.82-7.4 1.17-11 0.86-3.3-0.28-7.35-1.2-9-2.06-2.73-1.41-3.27-1.4-6 0.1-2.17 1.2-5.54 1.65-12.16 1.66-8.61 0-9.43-0.19-13.5-3.05-2.39-1.68-5.37-4.83-6.63-7-1.87-3.23-2.24-5.15-1.71-17.03l-7.66 0.04c-6.91 0.04-8.07-0.25-12-2.97-2.76-1.91-5.25-4.82-6.84-8-1.84-3.68-2.5-6.56-2.48-10.99 0.01-3.3 0.8-8.03 1.76-10.5 1.68-4.35 1.67-4.7-0.29-10.5-1.11-3.3-2.01-7.01-2.01-8.25 0.01-1.24 0.55-4.61 1.19-7.5 0.8-3.6 2.3-6.47 4.75-9.12 1.97-2.13 4.71-4.43 6.08-5.12 1.38-0.68 4.08-1.52 6-1.85 1.92-0.34 5.12-0.28 10.68 0.84l-0.48-6c-0.26-3.3 0.03-7.57 0.64-9.5 0.61-1.93 2.58-5.01 4.39-6.87 1.8-1.85 4.51-3.98 6.02-4.75 1.51-0.76 5.34-1.65 8.5-1.99 4.41-0.46 7.2-0.11 12 1.5 5.58 1.88 6.55 1.96 9 0.69 1.51-0.78 5-1.73 7.75-2.12 3.14-0.45 7.04-0.22 10.5 0.61 3.4 0.81 6.79 2.49 8.88 4.37 1.86 1.68 4.28 4.86 5.38 7.06 1.54 3.08 1.91 5.44 1.62 10.25-0.24 3.91-0.01 6.1 0.62 5.86 0.55-0.22 2.57-0.7 4.5-1.09 1.93-0.38 5.41-0.2 7.75 0.4 2.34 0.59 5.88 2.54 7.88 4.33 1.99 1.79 4.47 4.94 5.5 7 1.29 2.59 1.87 5.91 1.87 10.75 0 4.06-0.65 8.57-1.56 10.75-1.41 3.41-1.41 4.2 0.08 8.75 1.11 3.38 1.53 7.48 1.31 12.66-0.29 6.77-0.7 8.16-3.49 11.9-1.73 2.33-4.54 4.95-6.22 5.84-1.69 0.88-3.1 1.82-3.12 2.1-0.03 0.28 2.5 4.32 5.63 9 3.12 4.68 6.91 11.2 8.42 14.5 1.51 3.3 3.48 8.48 6 17l9.23-2.23c5.07-1.22 14.85-3.11 21.72-4.2 6.88-1.09 17.68-2.45 24-3.02 6.32-0.57 14.65-1.04 25.5-1.01l-0.81-4.27c-0.44-2.35-1.21-7.42-1.71-11.27-0.51-3.85-0.94-11.05-0.96-16-0.03-4.95-0.28-9.9-0.57-11-0.43-1.61-1.64-2.11-6.24-2.56-3.14-0.31-7.5-1.44-9.68-2.5-2.18-1.07-6.23-4-9-6.52-2.77-2.52-5.71-6-6.53-7.74-1.13-2.38-2.36-3.3-5-3.77-1.93-0.34-5.53-1.56-8-2.72-2.47-1.16-6.77-4.38-9.53-7.15-3.08-3.08-5.5-6.6-6.24-9.04-0.66-2.2-1.2-5.46-1.21-7.25-0.01-1.79 0.44-4.49 1-6 0.91-2.46 0.67-3.06-2.35-5.75-1.86-1.65-4.34-4.91-5.52-7.25-1.42-2.81-2.15-6.11-2.15-9.75 0-3.26 0.9-7.84 2.2-11.25 1.21-3.16 3.63-7.55 5.37-9.75 2.86-3.61 3.17-4.68 3.22-11q0.04-7 2.26-13c1.43-3.86 3.69-7.43 6.34-10.01 2.26-2.2 5.91-4.56 8.11-5.23 2.2-0.68 5.35-1.22 7-1.22 2.51 0.01 3.12-0.49 3.75-3.02 0.41-1.66 2.66-5.08 5-7.59 3.2-3.45 5.73-5.05 10.25-6.5 3.81-1.22 7.55-1.74 10.25-1.43zm-10.75 23q0 2.5 6.25 9.37c3.44 3.77 8.24 9.96 10.66 13.75 4.41 6.87 4.42 6.88 9 6.88 2.53 0 5.72 0.34 7.09 0.76 2.24 0.68 3.12-0.01 8.4-6.5 3.24-3.99 7.41-10.41 9.25-14.26 1.85-3.85 3.36-8.24 3.36-9.75-0.01-1.51-0.91-3.65-2.01-4.75-1.52-1.52-3.33-2-7.5-2-5.19 0-5.76 0.26-10 4.5-3.33 3.33-5.28 4.5-7.5 4.5-2.22 0-4.17-1.17-7.5-4.5-4.24-4.24-4.81-4.5-10-4.5-4.17 0-5.98 0.48-7.5 2-1.1 1.1-2 3.13-2 4.5zm-24.87 17.25c-0.62 1.24-1.13 4.05-1.13 6.25 0 2.45 0.79 5.06 2.03 6.75 1.12 1.51 2.04 4.1 2.04 5.75 0 1.78-0.88 3.81-2.15 5-1.18 1.1-3.52 2.45-5.19 3-1.67 0.55-3.91 2.13-4.96 3.5-1.06 1.38-2.18 4.75-2.49 7.5-0.51 4.46-0.31 5.19 1.82 6.76 1.32 0.96 3.19 1.75 4.15 1.75 0.96-0.01 5.01-1.58 9-3.5 3.99-1.91 11.16-4.5 15.95-5.75l8.7-2.26c1.63-6.59 2.78-9.51 3.61-10.75 1.4-2.1 1.25-2.64-2.37-8.25-2.12-3.3-5.5-8.03-7.5-10.5-2-2.47-5.55-5.98-7.89-7.78-2.37-1.83-5.4-3.27-6.85-3.25-1.43 0.02-3.29 0.82-4.12 1.78-0.84 0.96-2.03 2.76-2.65 4zm86.87 5.34c-1.93 3.41-6.09 9.28-9.25 13.05-4.46 5.33-5.55 7.25-4.87 8.61 0.49 0.96 1.16 3.66 1.5 6 0.59 4.03 0.92 4.39 6.37 6.85 3.16 1.43 9.13 3.46 13.25 4.51 4.13 1.05 9.98 1.92 13 1.93 3.99 0.02 5.97-0.47 7.22-1.76 0.95-0.98 1.75-3.13 1.78-4.78 0.03-1.65-0.64-4.69-1.48-6.75-0.83-2.06-2.53-4.43-3.77-5.26-1.24-0.83-2.93-1.49-3.75-1.47-0.82 0.02-2.5-0.99-3.73-2.24-1.26-1.29-2.25-3.58-2.28-5.28-0.03-1.65 0.86-4.24 1.98-5.75 1.27-1.73 2.04-4.33 2.06-7 0.02-2.8-0.76-5.44-2.28-7.75-1.68-2.54-3.16-3.58-5.41-3.8-2.35-0.24-3.54 0.29-4.97 2.19-1.03 1.38-3.44 5.29-5.37 8.7zm-42.95 29.86c-0.03 1.13 0.4 2.95 0.95 4.05 0.55 1.1 2.24 2.47 3.75 3.04 2.03 0.77 3.48 0.71 5.53-0.25 1.53-0.71 3.24-2.41 3.79-3.79 0.7-1.7 0.69-3.38-0.03-5.25-0.57-1.51-1.94-3.2-3.04-3.75-1.1-0.55-2.92-1-4.05-1-1.12 0-3.13 1.1-4.45 2.45-1.32 1.35-2.43 3.38-2.45 4.5zm-172.22 14.1c0.09 1.62 1.24 5.09 2.56 7.7 1.31 2.61 4.43 7.45 6.92 10.75 2.49 3.3 6.32 7.8 8.51 10l3.99 4c5.96-6.82 9.66-11.32 12.08-14.4 2.41-3.08 5.44-7.85 6.74-10.6 1.29-2.75 2.35-6.24 2.36-7.75 0.01-1.86-0.72-3.11-2.24-3.87-1.26-0.64-3.89-0.85-6-0.5-2.47 0.41-4.86 1.8-7 4.08-2.38 2.54-4.12 3.47-6.5 3.5-2.42 0.03-3.89-0.73-5.75-2.96-1.37-1.65-3.62-3.45-5-4-1.37-0.55-3.51-0.99-4.75-0.97-1.24 0.02-3.11 0.49-4.17 1.05-1.31 0.69-1.87 1.96-1.75 3.97zm316.98-0.25c0.08 1.48 1.48 5.4 3.1 8.7 1.62 3.3 6.2 9.82 10.18 14.5 3.98 4.68 7.4 8.72 7.59 9 0.2 0.28 2.18-1.3 4.42-3.5 2.23-2.2 6.1-6.7 8.59-10 2.49-3.3 5.61-8.14 6.92-10.75 1.32-2.61 2.39-6.1 2.39-7.75 0-2.12-0.66-3.33-2.25-4.11-1.24-0.61-3.94-0.83-6-0.5-2.53 0.41-4.81 1.76-7 4.14-2.39 2.6-4.04 3.51-6.25 3.46-2.07-0.05-4-1.14-6.25-3.53-2.42-2.57-4.34-3.59-7.5-3.99-2.34-0.29-5.11-0.04-6.17 0.55-1.23 0.69-1.87 2.05-1.77 3.78zm-181.56 9.23c-3.44 1.63-7.17 4.21-8.28 5.72-1.12 1.51-2.04 3.65-2.05 4.75-0.01 1.1 1.7 3.61 3.78 5.58 2.09 1.97 5.26 3.88 7.05 4.25 1.79 0.37 4.15 0.22 5.25-0.33 1.1-0.55 3.13-1 4.5-1 1.38 0 3.63 1.13 5 2.5 1.89 1.89 2.5 3.54 2.49 6.75 0 2.34 0.6 5.15 1.34 6.25 0.74 1.1 2.88 3 4.76 4.22 1.87 1.22 4.65 2.23 6.16 2.25 1.67 0.02 3.47-0.85 4.58-2.22 1.54-1.9 1.69-3.04 0.95-7.25-0.48-2.75-0.74-11.19-0.58-18.76l0.3-13.76c-4.65-2.83-6.67-4.42-7.5-5.36-0.82-0.94-2.17-1.67-3-1.61-0.82 0.05-5.32 1.21-10 2.57-4.67 1.36-11.31 3.81-14.75 5.45zm52.25-0.67c-0.61 0.19-0.99 6.47-0.98 16.23 0.02 12.94 0.34 16.61 1.75 19.66 0.95 2.06 2.74 4.25 3.98 4.86 1.24 0.61 3.38 0.86 4.75 0.55 1.38-0.31 4.17-2.05 6.2-3.86 3.27-2.91 3.71-3.86 3.75-8.05 0.04-3.66 0.61-5.32 2.5-7.25 1.35-1.37 3.6-2.5 5-2.5 1.4 0 3.45 0.45 4.55 1 1.1 0.55 3.46 0.7 5.25 0.33 1.79-0.37 4.96-2.28 7.05-4.25 2.08-1.97 3.77-4.48 3.75-5.58-0.02-1.1-0.71-3.01-1.54-4.25-1.12-1.67-2.86-2.41-6.76-2.87-2.89-0.34-8.17-1.51-11.75-2.6-3.57-1.1-9.09-3.07-12.25-4.39-3.16-1.31-6.09-2.35-6.5-2.3-0.41 0.04-2.32 1.18-4.25 2.53-1.92 1.34-3.95 2.58-4.5 2.74zm-130.03 17.35c-2.18 1.12-7.34 4.75-11.47 8.06-4.12 3.31-8.51 7.08-9.73 8.38l-2.24 2.35c15.09 12.38 21.95 17.23 24.97 18.76 3.03 1.54 6.42 2.78 7.55 2.76 1.13-0.01 2.6-0.58 3.27-1.27 0.67-0.69 1.21-3.39 1.2-6-0.02-4.15-0.47-5.16-3.55-8-2.76-2.54-3.53-4.02-3.52-6.75 0-2.72 0.79-4.23 3.53-6.75 3.12-2.89 3.52-3.81 3.52-8.25 0-4-0.4-5.2-2-6-1.1-0.55-2.11-0.96-2.25-0.91-0.14 0.04-1.39 0.42-2.78 0.84-1.39 0.41-4.32 1.67-6.5 2.78zm231.36 3.34c0.15 4.28 0.65 5.39 3.69 8.2 2.74 2.52 3.53 4.03 3.53 6.75 0.01 2.73-0.76 4.21-3.52 6.75-3.08 2.84-3.53 3.85-3.55 8-0.01 2.61 0.56 5.32 1.25 6.02 0.7 0.69 2.28 1.26 3.52 1.25 1.24-0.01 4.61-1.28 7.5-2.83 2.89-1.54 9.3-6.09 14.25-10.1 4.95-4.01 9.37-7.59 9.83-7.94 0.46-0.36-3.14-4.14-8-8.4-4.86-4.26-11.31-9.04-14.33-10.62-3.02-1.58-6.62-3.13-8-3.45-1.37-0.31-3.36-0.12-4.42 0.43-1.54 0.79-1.89 1.96-1.75 5.94zm-315.98 1.25c0.17 4.56 0.62 5.57 3.63 8.2 2.63 2.3 3.45 3.82 3.5 6.5 0.07 2.78-0.65 4.17-3.45 6.75-3.26 3-3.51 3.64-3.28 8.4 0.17 3.52 0.78 5.49 1.94 6.25 1.24 0.81 2.7 0.78 5.5-0.09 2.09-0.66 6.51-2.98 9.81-5.16 3.3-2.18 8.92-6.7 12.5-10.04l6.5-6.07c-6.98-6.32-11.7-10.21-15-12.71-3.3-2.5-7.58-5.33-9.5-6.29-1.93-0.97-4.63-2.02-6-2.34-1.38-0.32-3.36-0.14-4.42 0.41-1.57 0.81-1.89 1.95-1.73 6.19zm395.15 0.18c-3.57 2.49-8.97 6.78-12 9.54l-5.5 5.01c10.08 9.42 15.7 13.94 19 16.12 3.3 2.18 7.72 4.5 9.81 5.16 2.8 0.87 4.26 0.9 5.5 0.09 1.16-0.76 1.77-2.73 1.94-6.25 0.23-4.76-0.02-5.4-3.28-8.4-2.8-2.58-3.52-3.97-3.45-6.75 0.05-2.68 0.87-4.2 3.5-6.5 3.08-2.69 3.43-3.53 3.46-8.25 0.02-4.26-0.36-5.44-1.98-6.25-1.1-0.55-2.11-0.98-2.25-0.96-0.14 0.03-2.05 0.69-4.25 1.48-2.2 0.79-6.92 3.48-10.5 5.96zm-352.5 34.35c-3.85 4.45-8.46 10.47-10.25 13.38-1.79 2.91-3.59 6.93-4 8.94-0.55 2.67-0.35 4.09 0.75 5.29 0.96 1.06 3.03 1.63 5.75 1.6 3.6-0.03 4.79-0.62 7.74-3.79 2.73-2.94 4.23-3.75 6.95-3.75 2.7 0 4.24 0.82 7.01 3.75 3.22 3.4 3.98 3.73 8.2 3.5 2.8-0.15 5.04-0.85 5.63-1.75 0.53-0.82 0.69-3.19 0.35-5.25-0.35-2.07-2.87-7-5.63-11-2.74-3.99-7.36-9.89-10.25-13.12l-5.25-5.88zm315 0.01c-3.85 4.45-8.46 10.46-10.25 13.37-1.79 2.91-3.59 6.93-4 8.94-0.55 2.67-0.35 4.09 0.75 5.29q1.5 1.64 6 1.56c3.87-0.08 4.96-0.61 7.8-3.8 2.6-2.92 4.03-3.7 6.76-3.7 2.72 0 4.22 0.81 6.95 3.75 3.17 3.41 3.91 3.72 8.14 3.5 2.8-0.15 5.04-0.85 5.63-1.75 0.53-0.83 0.69-3.19 0.35-5.25-0.35-2.07-2.87-7.02-5.61-11-2.74-3.99-7.35-9.89-10.25-13.12l-5.27-5.86zm-190.5 64.24c-5.22 0.61-14.9 2.17-21.5 3.48-6.6 1.3-16.72 3.77-22.5 5.48-5.77 1.71-15 4.87-20.5 7.03-5.5 2.16-15.29 6.74-21.75 10.18-6.46 3.43-15.88 9.17-20.92 12.74-5.05 3.58-12.49 9.65-16.54 13.5-4.05 3.85-7.23 7.08-7.07 7.17 0.15 0.08 8.38 1.34 18.28 2.78 15.11 2.2 18.36 2.98 20.28 4.84 1.25 1.22 2.26 3.34 2.26 4.71-0.01 1.38-1.38 9.25-3.04 17.5-1.66 8.25-3.01 15.57-3.01 16.25 0.01 0.69 3.27-0.94 7.26-3.63 3.99-2.68 11.3-6.93 16.25-9.43 4.95-2.5 13.05-6.12 18-8.04 4.95-1.91 13.28-4.68 18.5-6.14 5.23-1.47 13.78-3.54 19-4.61 5.23-1.07 15.13-2.68 22-3.57 7.94-1.03 20.34-1.65 34-1.69 11.83-0.03 26.45 0.52 32.5 1.24 6.05 0.71 16.85 2.42 24 3.8 7.15 1.38 18.06 4.04 24.25 5.91 6.19 1.88 15.64 5.3 21 7.61 5.36 2.31 13.35 6.19 17.75 8.62 4.4 2.43 10.14 5.94 12.75 7.8 2.68 1.91 4.75 2.84 4.76 2.13 0-0.68-1.35-8-3.01-16.25-1.66-8.25-3.03-16.12-3.04-17.5 0-1.37 1.01-3.5 2.26-4.73 1.93-1.88 5.07-2.62 20.28-4.8 9.9-1.42 18.11-2.78 18.25-3.02 0.14-0.25-3.24-3.62-7.5-7.5-4.26-3.88-11.8-9.95-16.75-13.49-4.95-3.54-16.2-10.03-25-14.42-8.8-4.38-20.05-9.37-25-11.08-4.95-1.71-14.85-4.62-22-6.47-7.15-1.84-19.3-4.32-27-5.51-11.35-1.76-19.4-2.22-42.5-2.47-15.67-0.17-30.07-0.13-32 0.09-1.92 0.22-7.77 0.89-13 1.49zm37.23 24.62l16.63 0.61c9.15 0.34 21.37 1.33 27.14 2.21 5.78 0.88 14.78 2.52 20 3.64 5.23 1.12 13.1 3.15 17.5 4.51 4.4 1.36 11.78 3.9 16.4 5.64 4.62 1.75 9.01 4.08 9.76 5.18 0.74 1.1 1.36 3.35 1.37 5 0.01 1.8-0.89 3.94-2.25 5.32-1.78 1.81-3.05 2.22-5.78 1.85-1.92-0.26-9.35-2.51-16.5-5.01-7.15-2.5-19.75-5.89-28-7.54-8.25-1.65-19.95-3.47-26-4.06-6.05-0.59-15.16-1.06-20.25-1.06-8.95 0-9.35-0.1-12.25-3-1.81-1.81-2.98-4-2.95-5.54 0.02-1.4 1.2-3.72 2.61-5.15zm-56.16 7.45c1.61 0.47 3.38 1.75 3.93 2.85 0.55 1.1 1.01 3.23 1.02 4.75 0.01 1.51-0.56 3.54-1.25 4.52-0.78 1.09-6.46 3.27-14.77 5.67-7.42 2.15-17.32 5.46-22 7.35-4.67 1.89-10.86 4.63-13.75 6.07-2.89 1.45-6.6 2.64-8.25 2.64-1.67 0-3.89-0.89-5-2-1.17-1.17-2.01-3.36-2.02-5.25-0.01-1.79 0.56-4.02 1.25-4.95 0.7-0.93 5.32-3.68 10.27-6.11 4.95-2.44 12.83-5.79 17.5-7.46 4.68-1.67 10.75-3.75 13.5-4.62 2.75-0.87 7.62-2.19 10.82-2.94 3.71-0.86 6.88-1.05 8.75-0.52z"/>
</svg>